<mxfile host="app.diagrams.net" agent="Mozilla/5.0 (X11; Linux x86_64) AppleWebKit/537.36 (KHTML, like Gecko) Chrome/133.0.0.0 Safari/537.36" version="26.0.16">
  <diagram name="Page-1" id="13e1069c-82ec-6db2-03f1-153e76fe0fe0">
    <mxGraphModel grid="1" page="1" gridSize="10" guides="1" tooltips="1" connect="1" arrows="1" fold="1" pageScale="1" pageWidth="1100" pageHeight="850" background="none" math="0" shadow="0">
      <root>
        <mxCell id="0" />
        <mxCell id="1" parent="0" />
        <mxCell id="7baba1c4bc27f4b0-2" value=":Frontend" style="shape=umlLifeline;perimeter=lifelinePerimeter;whiteSpace=wrap;html=1;container=1;collapsible=0;recursiveResize=0;outlineConnect=0;rounded=1;shadow=0;comic=0;labelBackgroundColor=none;strokeWidth=1;fontFamily=Verdana;fontSize=12;align=center;" vertex="1" parent="1">
          <mxGeometry x="240" y="80" width="100" height="2460" as="geometry" />
        </mxCell>
        <mxCell id="7baba1c4bc27f4b0-10" value="" style="html=1;points=[];perimeter=orthogonalPerimeter;rounded=0;shadow=0;comic=0;labelBackgroundColor=none;strokeWidth=1;fontFamily=Verdana;fontSize=12;align=center;" vertex="1" parent="7baba1c4bc27f4b0-2">
          <mxGeometry x="45" y="101" width="10" height="89" as="geometry" />
        </mxCell>
        <mxCell id="Z4ZE246BEMPOgEt_vpQq-17" value="Click signup with Polytech" style="html=1;verticalAlign=bottom;endArrow=block;entryX=0;entryY=0;labelBackgroundColor=none;fontFamily=Verdana;fontSize=12;edgeStyle=elbowEdgeStyle;elbow=vertical;" edge="1" parent="7baba1c4bc27f4b0-2" target="Z4ZE246BEMPOgEt_vpQq-16">
          <mxGeometry y="5" relative="1" as="geometry">
            <mxPoint x="-95" y="295" as="sourcePoint" />
            <mxPoint as="offset" />
          </mxGeometry>
        </mxCell>
        <mxCell id="Z4ZE246BEMPOgEt_vpQq-16" value="" style="html=1;points=[];perimeter=orthogonalPerimeter;rounded=0;shadow=0;comic=0;labelBackgroundColor=none;strokeWidth=1;fontFamily=Verdana;fontSize=12;align=center;" vertex="1" parent="7baba1c4bc27f4b0-2">
          <mxGeometry x="45" y="295" width="10" height="115" as="geometry" />
        </mxCell>
        <mxCell id="Z4ZE246BEMPOgEt_vpQq-19" value="" style="edgeStyle=none;orthogonalLoop=1;jettySize=auto;html=1;rounded=0;" edge="1" parent="7baba1c4bc27f4b0-2">
          <mxGeometry width="80" relative="1" as="geometry">
            <mxPoint x="55" y="307" as="sourcePoint" />
            <mxPoint x="629.5" y="307" as="targetPoint" />
            <Array as="points" />
          </mxGeometry>
        </mxCell>
        <mxCell id="Z4ZE246BEMPOgEt_vpQq-20" value="Redirect to Keycloak (OIDC Login)" style="edgeLabel;html=1;align=center;verticalAlign=middle;resizable=0;points=[];" connectable="0" vertex="1" parent="Z4ZE246BEMPOgEt_vpQq-19">
          <mxGeometry x="-0.6623" y="1" relative="1" as="geometry">
            <mxPoint as="offset" />
          </mxGeometry>
        </mxCell>
        <mxCell id="Z4ZE246BEMPOgEt_vpQq-30" value="Send OIDC token" style="edgeStyle=none;orthogonalLoop=1;jettySize=auto;html=1;rounded=0;" edge="1" parent="7baba1c4bc27f4b0-2" target="7baba1c4bc27f4b0-3">
          <mxGeometry width="80" relative="1" as="geometry">
            <mxPoint x="55" y="394" as="sourcePoint" />
            <mxPoint x="135" y="394" as="targetPoint" />
            <Array as="points" />
          </mxGeometry>
        </mxCell>
        <mxCell id="Z4ZE246BEMPOgEt_vpQq-65" value="Send OIDC token" style="edgeStyle=none;orthogonalLoop=1;jettySize=auto;html=1;rounded=0;" edge="1" parent="7baba1c4bc27f4b0-2">
          <mxGeometry width="80" relative="1" as="geometry">
            <mxPoint x="55" y="800" as="sourcePoint" />
            <mxPoint x="210" y="800" as="targetPoint" />
            <Array as="points" />
          </mxGeometry>
        </mxCell>
        <mxCell id="Z4ZE246BEMPOgEt_vpQq-77" value="" style="html=1;points=[];perimeter=orthogonalPerimeter;rounded=0;shadow=0;comic=0;labelBackgroundColor=none;strokeWidth=1;fontFamily=Verdana;fontSize=12;align=center;" vertex="1" parent="7baba1c4bc27f4b0-2">
          <mxGeometry x="45" y="1080" width="10" height="270" as="geometry" />
        </mxCell>
        <mxCell id="Z4ZE246BEMPOgEt_vpQq-78" value="" style="edgeStyle=none;orthogonalLoop=1;jettySize=auto;html=1;rounded=0;" edge="1" parent="7baba1c4bc27f4b0-2" target="7baba1c4bc27f4b0-3">
          <mxGeometry width="80" relative="1" as="geometry">
            <mxPoint x="55" y="1110" as="sourcePoint" />
            <mxPoint x="135" y="1110" as="targetPoint" />
            <Array as="points" />
          </mxGeometry>
        </mxCell>
        <mxCell id="Z4ZE246BEMPOgEt_vpQq-80" value="POST /signin&amp;nbsp;&lt;div&gt;(email, password)&lt;/div&gt;" style="edgeLabel;html=1;align=center;verticalAlign=middle;resizable=0;points=[];" connectable="0" vertex="1" parent="Z4ZE246BEMPOgEt_vpQq-78">
          <mxGeometry x="-0.6649" y="-1" relative="1" as="geometry">
            <mxPoint x="49" y="-1" as="offset" />
          </mxGeometry>
        </mxCell>
        <mxCell id="Z4ZE246BEMPOgEt_vpQq-94" value="" style="edgeStyle=none;orthogonalLoop=1;jettySize=auto;html=1;rounded=0;" edge="1" parent="7baba1c4bc27f4b0-2" target="7baba1c4bc27f4b0-8">
          <mxGeometry width="80" relative="1" as="geometry">
            <mxPoint x="40" y="1340" as="sourcePoint" />
            <mxPoint x="-100.00111111111107" y="1340" as="targetPoint" />
            <Array as="points" />
          </mxGeometry>
        </mxCell>
        <mxCell id="Z4ZE246BEMPOgEt_vpQq-95" value="Set cookies" style="edgeLabel;html=1;align=center;verticalAlign=middle;resizable=0;points=[];" connectable="0" vertex="1" parent="Z4ZE246BEMPOgEt_vpQq-94">
          <mxGeometry x="0.4802" y="4" relative="1" as="geometry">
            <mxPoint x="27" y="-4" as="offset" />
          </mxGeometry>
        </mxCell>
        <mxCell id="Z4ZE246BEMPOgEt_vpQq-101" value="Click login with Polytech" style="html=1;verticalAlign=bottom;endArrow=block;entryX=0;entryY=0;labelBackgroundColor=none;fontFamily=Verdana;fontSize=12;edgeStyle=elbowEdgeStyle;elbow=vertical;" edge="1" parent="7baba1c4bc27f4b0-2" target="Z4ZE246BEMPOgEt_vpQq-102">
          <mxGeometry y="5" relative="1" as="geometry">
            <mxPoint x="-95" y="1530" as="sourcePoint" />
            <mxPoint as="offset" />
          </mxGeometry>
        </mxCell>
        <mxCell id="Z4ZE246BEMPOgEt_vpQq-102" value="" style="html=1;points=[];perimeter=orthogonalPerimeter;rounded=0;shadow=0;comic=0;labelBackgroundColor=none;strokeWidth=1;fontFamily=Verdana;fontSize=12;align=center;" vertex="1" parent="7baba1c4bc27f4b0-2">
          <mxGeometry x="45" y="1530" width="10" height="390" as="geometry" />
        </mxCell>
        <mxCell id="Z4ZE246BEMPOgEt_vpQq-104" value="" style="edgeStyle=none;orthogonalLoop=1;jettySize=auto;html=1;rounded=0;" edge="1" parent="7baba1c4bc27f4b0-2" target="7baba1c4bc27f4b0-6">
          <mxGeometry width="80" relative="1" as="geometry">
            <mxPoint x="55" y="1560" as="sourcePoint" />
            <mxPoint x="135" y="1560" as="targetPoint" />
            <Array as="points" />
          </mxGeometry>
        </mxCell>
        <mxCell id="Z4ZE246BEMPOgEt_vpQq-105" value="Redirect to Keycloak (OIDC login)" style="edgeLabel;html=1;align=center;verticalAlign=middle;resizable=0;points=[];" connectable="0" vertex="1" parent="Z4ZE246BEMPOgEt_vpQq-104">
          <mxGeometry x="-0.7281" y="-2" relative="1" as="geometry">
            <mxPoint x="17" as="offset" />
          </mxGeometry>
        </mxCell>
        <mxCell id="Z4ZE246BEMPOgEt_vpQq-115" value="" style="edgeStyle=none;orthogonalLoop=1;jettySize=auto;html=1;rounded=0;" edge="1" parent="7baba1c4bc27f4b0-2" target="7baba1c4bc27f4b0-3">
          <mxGeometry width="80" relative="1" as="geometry">
            <mxPoint x="55" y="1690" as="sourcePoint" />
            <mxPoint x="135" y="1690" as="targetPoint" />
            <Array as="points" />
          </mxGeometry>
        </mxCell>
        <mxCell id="Z4ZE246BEMPOgEt_vpQq-116" value="Send OIDC token" style="edgeLabel;html=1;align=center;verticalAlign=middle;resizable=0;points=[];" connectable="0" vertex="1" parent="Z4ZE246BEMPOgEt_vpQq-115">
          <mxGeometry x="-0.4002" y="-2" relative="1" as="geometry">
            <mxPoint x="18" y="-2" as="offset" />
          </mxGeometry>
        </mxCell>
        <mxCell id="Z4ZE246BEMPOgEt_vpQq-134" value="Click &quot;Assocaite&amp;nbsp;&lt;div&gt;Google Account&quot;&lt;/div&gt;" style="html=1;verticalAlign=bottom;endArrow=block;entryX=0;entryY=0;labelBackgroundColor=none;fontFamily=Verdana;fontSize=12;edgeStyle=elbowEdgeStyle;elbow=vertical;" edge="1" parent="7baba1c4bc27f4b0-2" target="Z4ZE246BEMPOgEt_vpQq-135">
          <mxGeometry y="5" relative="1" as="geometry">
            <mxPoint x="-95" y="2070" as="sourcePoint" />
            <mxPoint as="offset" />
          </mxGeometry>
        </mxCell>
        <mxCell id="Z4ZE246BEMPOgEt_vpQq-135" value="" style="html=1;points=[];perimeter=orthogonalPerimeter;rounded=0;shadow=0;comic=0;labelBackgroundColor=none;strokeWidth=1;fontFamily=Verdana;fontSize=12;align=center;" vertex="1" parent="7baba1c4bc27f4b0-2">
          <mxGeometry x="45" y="2070" width="10" height="180" as="geometry" />
        </mxCell>
        <mxCell id="Z4ZE246BEMPOgEt_vpQq-137" value="" style="edgeStyle=none;orthogonalLoop=1;jettySize=auto;html=1;rounded=0;" edge="1" parent="7baba1c4bc27f4b0-2" target="7baba1c4bc27f4b0-6">
          <mxGeometry width="80" relative="1" as="geometry">
            <mxPoint x="55" y="2090" as="sourcePoint" />
            <mxPoint x="135" y="2090" as="targetPoint" />
            <Array as="points" />
          </mxGeometry>
        </mxCell>
        <mxCell id="Z4ZE246BEMPOgEt_vpQq-138" value="Redirect to KeyCloak (OIDC login)" style="edgeLabel;html=1;align=center;verticalAlign=middle;resizable=0;points=[];" connectable="0" vertex="1" parent="Z4ZE246BEMPOgEt_vpQq-137">
          <mxGeometry x="-0.7331" y="-4" relative="1" as="geometry">
            <mxPoint x="38" y="-4" as="offset" />
          </mxGeometry>
        </mxCell>
        <mxCell id="Z4ZE246BEMPOgEt_vpQq-148" value="" style="edgeStyle=none;orthogonalLoop=1;jettySize=auto;html=1;rounded=0;" edge="1" parent="7baba1c4bc27f4b0-2" target="7baba1c4bc27f4b0-3">
          <mxGeometry width="80" relative="1" as="geometry">
            <mxPoint x="55" y="2220" as="sourcePoint" />
            <mxPoint x="135" y="2220" as="targetPoint" />
            <Array as="points" />
          </mxGeometry>
        </mxCell>
        <mxCell id="Z4ZE246BEMPOgEt_vpQq-149" value="Send OIDC token" style="edgeLabel;html=1;align=center;verticalAlign=middle;resizable=0;points=[];" connectable="0" vertex="1" parent="Z4ZE246BEMPOgEt_vpQq-148">
          <mxGeometry x="-0.5858" y="-2" relative="1" as="geometry">
            <mxPoint x="33" as="offset" />
          </mxGeometry>
        </mxCell>
        <mxCell id="7baba1c4bc27f4b0-3" value=":Backend" style="shape=umlLifeline;perimeter=lifelinePerimeter;whiteSpace=wrap;html=1;container=1;collapsible=0;recursiveResize=0;outlineConnect=0;rounded=1;shadow=0;comic=0;labelBackgroundColor=none;strokeWidth=1;fontFamily=Verdana;fontSize=12;align=center;" vertex="1" parent="1">
          <mxGeometry x="400" y="80" width="100" height="2460" as="geometry" />
        </mxCell>
        <mxCell id="7baba1c4bc27f4b0-13" value="" style="html=1;points=[];perimeter=orthogonalPerimeter;rounded=0;shadow=0;comic=0;labelBackgroundColor=none;strokeWidth=1;fontFamily=Verdana;fontSize=12;align=center;" vertex="1" parent="7baba1c4bc27f4b0-3">
          <mxGeometry x="45" y="120" width="10" height="70" as="geometry" />
        </mxCell>
        <mxCell id="7baba1c4bc27f4b0-17" value="" style="html=1;verticalAlign=bottom;endArrow=block;labelBackgroundColor=none;fontFamily=Verdana;fontSize=12;edgeStyle=orthogonalEdgeStyle;elbow=vertical;entryX=0.66;entryY=0.49;entryDx=0;entryDy=0;entryPerimeter=0;curved=1;exitX=1.06;exitY=0.056;exitDx=0;exitDy=0;exitPerimeter=0;" edge="1" parent="7baba1c4bc27f4b0-3" source="7baba1c4bc27f4b0-13" target="7baba1c4bc27f4b0-13">
          <mxGeometry x="-0.3173" y="51" relative="1" as="geometry">
            <mxPoint x="110" y="150" as="sourcePoint" />
            <Array as="points">
              <mxPoint x="170" y="140" />
            </Array>
            <mxPoint x="140" y="180" as="targetPoint" />
            <mxPoint x="-41" y="-50" as="offset" />
          </mxGeometry>
        </mxCell>
        <mxCell id="Z4ZE246BEMPOgEt_vpQq-7" value="Create User in DB" style="edgeLabel;html=1;align=center;verticalAlign=middle;resizable=0;points=[];" connectable="0" vertex="1" parent="7baba1c4bc27f4b0-17">
          <mxGeometry x="-0.4891" y="-5" relative="1" as="geometry">
            <mxPoint as="offset" />
          </mxGeometry>
        </mxCell>
        <mxCell id="Z4ZE246BEMPOgEt_vpQq-29" value="" style="html=1;points=[];perimeter=orthogonalPerimeter;rounded=0;shadow=0;comic=0;labelBackgroundColor=none;strokeWidth=1;fontFamily=Verdana;fontSize=12;align=center;" vertex="1" parent="7baba1c4bc27f4b0-3">
          <mxGeometry x="45" y="380" width="10" height="130" as="geometry" />
        </mxCell>
        <mxCell id="Z4ZE246BEMPOgEt_vpQq-32" value="" style="edgeStyle=none;orthogonalLoop=1;jettySize=auto;html=1;rounded=0;" edge="1" parent="7baba1c4bc27f4b0-3">
          <mxGeometry width="80" relative="1" as="geometry">
            <mxPoint x="55" y="413" as="sourcePoint" />
            <mxPoint x="469.5" y="413" as="targetPoint" />
            <Array as="points" />
          </mxGeometry>
        </mxCell>
        <mxCell id="Z4ZE246BEMPOgEt_vpQq-34" value="Validate OIDC token" style="edgeLabel;html=1;align=center;verticalAlign=middle;resizable=0;points=[];" connectable="0" vertex="1" parent="Z4ZE246BEMPOgEt_vpQq-32">
          <mxGeometry x="-0.587" relative="1" as="geometry">
            <mxPoint x="-1" as="offset" />
          </mxGeometry>
        </mxCell>
        <mxCell id="Z4ZE246BEMPOgEt_vpQq-38" value="" style="html=1;verticalAlign=bottom;endArrow=block;labelBackgroundColor=none;fontFamily=Verdana;fontSize=12;edgeStyle=orthogonalEdgeStyle;elbow=vertical;entryX=0.916;entryY=0.971;entryDx=0;entryDy=0;entryPerimeter=0;curved=1;exitX=0.916;exitY=0.695;exitDx=0;exitDy=0;exitPerimeter=0;" edge="1" parent="7baba1c4bc27f4b0-3" source="Z4ZE246BEMPOgEt_vpQq-29" target="Z4ZE246BEMPOgEt_vpQq-29">
          <mxGeometry x="-0.3173" y="51" relative="1" as="geometry">
            <mxPoint x="55" y="470" as="sourcePoint" />
            <Array as="points">
              <mxPoint x="130" y="470" />
              <mxPoint x="130" y="505" />
              <mxPoint x="60" y="505" />
              <mxPoint x="60" y="506" />
            </Array>
            <mxPoint x="55" y="505" as="targetPoint" />
            <mxPoint x="-41" y="-50" as="offset" />
          </mxGeometry>
        </mxCell>
        <mxCell id="Z4ZE246BEMPOgEt_vpQq-39" value="Create User in DB" style="edgeLabel;html=1;align=center;verticalAlign=middle;resizable=0;points=[];" connectable="0" vertex="1" parent="Z4ZE246BEMPOgEt_vpQq-38">
          <mxGeometry x="-0.4891" y="-5" relative="1" as="geometry">
            <mxPoint x="22" y="15" as="offset" />
          </mxGeometry>
        </mxCell>
        <mxCell id="Z4ZE246BEMPOgEt_vpQq-64" value="" style="html=1;points=[];perimeter=orthogonalPerimeter;rounded=0;shadow=0;comic=0;labelBackgroundColor=none;strokeWidth=1;fontFamily=Verdana;fontSize=12;align=center;" vertex="1" parent="7baba1c4bc27f4b0-3">
          <mxGeometry x="45" y="780" width="10" height="130" as="geometry" />
        </mxCell>
        <mxCell id="Z4ZE246BEMPOgEt_vpQq-81" value="" style="html=1;points=[];perimeter=orthogonalPerimeter;rounded=0;shadow=0;comic=0;labelBackgroundColor=none;strokeWidth=1;fontFamily=Verdana;fontSize=12;align=center;" vertex="1" parent="7baba1c4bc27f4b0-3">
          <mxGeometry x="45" y="1100" width="10" height="220" as="geometry" />
        </mxCell>
        <mxCell id="Z4ZE246BEMPOgEt_vpQq-82" value="" style="edgeStyle=orthogonalEdgeStyle;orthogonalLoop=1;jettySize=auto;html=1;rounded=0;exitX=0.744;exitY=0.119;exitDx=0;exitDy=0;exitPerimeter=0;entryX=0.389;entryY=0.309;entryDx=0;entryDy=0;entryPerimeter=0;curved=1;" edge="1" parent="7baba1c4bc27f4b0-3" source="Z4ZE246BEMPOgEt_vpQq-81" target="Z4ZE246BEMPOgEt_vpQq-81">
          <mxGeometry width="80" relative="1" as="geometry">
            <mxPoint x="100" y="1100" as="sourcePoint" />
            <mxPoint x="180" y="1100" as="targetPoint" />
            <Array as="points">
              <mxPoint x="52" y="1123" />
              <mxPoint x="130" y="1123" />
              <mxPoint x="130" y="1167" />
              <mxPoint x="49" y="1167" />
            </Array>
          </mxGeometry>
        </mxCell>
        <mxCell id="Z4ZE246BEMPOgEt_vpQq-83" value="Verify credentials" style="edgeLabel;html=1;align=center;verticalAlign=middle;resizable=0;points=[];" connectable="0" vertex="1" parent="Z4ZE246BEMPOgEt_vpQq-82">
          <mxGeometry x="-0.0193" y="-5" relative="1" as="geometry">
            <mxPoint as="offset" />
          </mxGeometry>
        </mxCell>
        <mxCell id="Z4ZE246BEMPOgEt_vpQq-87" value="" style="edgeStyle=none;orthogonalLoop=1;jettySize=auto;html=1;rounded=0;" edge="1" parent="7baba1c4bc27f4b0-3" target="7baba1c4bc27f4b0-4">
          <mxGeometry width="80" relative="1" as="geometry">
            <mxPoint x="55" y="1270" as="sourcePoint" />
            <mxPoint x="135" y="1270" as="targetPoint" />
            <Array as="points" />
          </mxGeometry>
        </mxCell>
        <mxCell id="Z4ZE246BEMPOgEt_vpQq-88" value="Store tokens" style="edgeLabel;html=1;align=center;verticalAlign=middle;resizable=0;points=[];" connectable="0" vertex="1" parent="Z4ZE246BEMPOgEt_vpQq-87">
          <mxGeometry x="-0.2943" y="-4" relative="1" as="geometry">
            <mxPoint x="14" y="-4" as="offset" />
          </mxGeometry>
        </mxCell>
        <mxCell id="Z4ZE246BEMPOgEt_vpQq-99" value="" style="edgeStyle=orthogonalEdgeStyle;orthogonalLoop=1;jettySize=auto;html=1;rounded=0;entryX=0.922;entryY=0.926;entryDx=0;entryDy=0;entryPerimeter=0;curved=1;" edge="1" parent="7baba1c4bc27f4b0-3" target="Z4ZE246BEMPOgEt_vpQq-64">
          <mxGeometry width="80" relative="1" as="geometry">
            <mxPoint x="55" y="870" as="sourcePoint" />
            <mxPoint x="110" y="900" as="targetPoint" />
            <Array as="points">
              <mxPoint x="130" y="870" />
              <mxPoint x="130" y="900" />
            </Array>
          </mxGeometry>
        </mxCell>
        <mxCell id="Z4ZE246BEMPOgEt_vpQq-114" value="" style="html=1;points=[];perimeter=orthogonalPerimeter;rounded=0;shadow=0;comic=0;labelBackgroundColor=none;strokeWidth=1;fontFamily=Verdana;fontSize=12;align=center;" vertex="1" parent="7baba1c4bc27f4b0-3">
          <mxGeometry x="45" y="1670" width="10" height="220" as="geometry" />
        </mxCell>
        <mxCell id="Z4ZE246BEMPOgEt_vpQq-118" value="" style="edgeStyle=none;orthogonalLoop=1;jettySize=auto;html=1;rounded=0;" edge="1" parent="7baba1c4bc27f4b0-3" target="7baba1c4bc27f4b0-6">
          <mxGeometry width="80" relative="1" as="geometry">
            <mxPoint x="55" y="1710" as="sourcePoint" />
            <mxPoint x="135" y="1710" as="targetPoint" />
            <Array as="points" />
          </mxGeometry>
        </mxCell>
        <mxCell id="Z4ZE246BEMPOgEt_vpQq-119" value="Validate OIDC token" style="edgeLabel;html=1;align=center;verticalAlign=middle;resizable=0;points=[];" connectable="0" vertex="1" parent="Z4ZE246BEMPOgEt_vpQq-118">
          <mxGeometry x="-0.7872" y="3" relative="1" as="geometry">
            <mxPoint x="31" as="offset" />
          </mxGeometry>
        </mxCell>
        <mxCell id="Z4ZE246BEMPOgEt_vpQq-122" value="" style="edgeStyle=orthogonalEdgeStyle;orthogonalLoop=1;jettySize=auto;html=1;rounded=0;curved=1;entryX=0.922;entryY=0.658;entryDx=0;entryDy=0;entryPerimeter=0;exitX=1.011;exitY=0.463;exitDx=0;exitDy=0;exitPerimeter=0;" edge="1" parent="7baba1c4bc27f4b0-3" source="Z4ZE246BEMPOgEt_vpQq-114" target="Z4ZE246BEMPOgEt_vpQq-114">
          <mxGeometry width="80" relative="1" as="geometry">
            <mxPoint x="90" y="1760" as="sourcePoint" />
            <mxPoint x="170" y="1760" as="targetPoint" />
            <Array as="points">
              <mxPoint x="150" y="1763" />
              <mxPoint x="150" y="1802" />
            </Array>
          </mxGeometry>
        </mxCell>
        <mxCell id="Z4ZE246BEMPOgEt_vpQq-123" value="Generate JWT tokens" style="edgeLabel;html=1;align=center;verticalAlign=middle;resizable=0;points=[];" connectable="0" vertex="1" parent="Z4ZE246BEMPOgEt_vpQq-122">
          <mxGeometry x="0.0101" y="-2" relative="1" as="geometry">
            <mxPoint x="-18" as="offset" />
          </mxGeometry>
        </mxCell>
        <mxCell id="Z4ZE246BEMPOgEt_vpQq-125" value="" style="edgeStyle=none;orthogonalLoop=1;jettySize=auto;html=1;rounded=0;" edge="1" parent="7baba1c4bc27f4b0-3" target="7baba1c4bc27f4b0-4">
          <mxGeometry width="80" relative="1" as="geometry">
            <mxPoint x="55" y="1830" as="sourcePoint" />
            <mxPoint x="135" y="1830" as="targetPoint" />
            <Array as="points" />
          </mxGeometry>
        </mxCell>
        <mxCell id="Z4ZE246BEMPOgEt_vpQq-126" value="Store user tokens" style="edgeLabel;html=1;align=center;verticalAlign=middle;resizable=0;points=[];" connectable="0" vertex="1" parent="Z4ZE246BEMPOgEt_vpQq-125">
          <mxGeometry x="-0.7516" y="1" relative="1" as="geometry">
            <mxPoint x="48" as="offset" />
          </mxGeometry>
        </mxCell>
        <mxCell id="Z4ZE246BEMPOgEt_vpQq-129" value="" style="edgeStyle=none;orthogonalLoop=1;jettySize=auto;html=1;rounded=0;" edge="1" parent="7baba1c4bc27f4b0-3" target="7baba1c4bc27f4b0-2">
          <mxGeometry width="80" relative="1" as="geometry">
            <mxPoint x="45" y="1890" as="sourcePoint" />
            <mxPoint x="-65.14516129032256" y="1890" as="targetPoint" />
            <Array as="points" />
          </mxGeometry>
        </mxCell>
        <mxCell id="Z4ZE246BEMPOgEt_vpQq-130" value="Return access token&lt;div&gt;&amp;nbsp;&amp;amp; refresh token&lt;/div&gt;" style="edgeLabel;html=1;align=center;verticalAlign=middle;resizable=0;points=[];" connectable="0" vertex="1" parent="Z4ZE246BEMPOgEt_vpQq-129">
          <mxGeometry x="0.5939" relative="1" as="geometry">
            <mxPoint x="49" as="offset" />
          </mxGeometry>
        </mxCell>
        <mxCell id="Z4ZE246BEMPOgEt_vpQq-145" value="" style="html=1;points=[];perimeter=orthogonalPerimeter;rounded=0;shadow=0;comic=0;labelBackgroundColor=none;strokeWidth=1;fontFamily=Verdana;fontSize=12;align=center;" vertex="1" parent="7baba1c4bc27f4b0-3">
          <mxGeometry x="45" y="2210" width="10" height="150" as="geometry" />
        </mxCell>
        <mxCell id="Z4ZE246BEMPOgEt_vpQq-150" value="" style="edgeStyle=none;orthogonalLoop=1;jettySize=auto;html=1;rounded=0;" edge="1" parent="7baba1c4bc27f4b0-3" target="7baba1c4bc27f4b0-6">
          <mxGeometry width="80" relative="1" as="geometry">
            <mxPoint x="55" y="2234.58" as="sourcePoint" />
            <mxPoint x="135" y="2234.58" as="targetPoint" />
            <Array as="points" />
          </mxGeometry>
        </mxCell>
        <mxCell id="Z4ZE246BEMPOgEt_vpQq-151" value="Validate OIDC token" style="edgeLabel;html=1;align=center;verticalAlign=middle;resizable=0;points=[];" connectable="0" vertex="1" parent="Z4ZE246BEMPOgEt_vpQq-150">
          <mxGeometry x="-0.6799" relative="1" as="geometry">
            <mxPoint as="offset" />
          </mxGeometry>
        </mxCell>
        <mxCell id="Z4ZE246BEMPOgEt_vpQq-155" value="" style="edgeStyle=orthogonalEdgeStyle;orthogonalLoop=1;jettySize=auto;html=1;rounded=0;curved=1;" edge="1" parent="7baba1c4bc27f4b0-3" target="7baba1c4bc27f4b0-3">
          <mxGeometry width="80" relative="1" as="geometry">
            <mxPoint x="55" y="2300" as="sourcePoint" />
            <mxPoint x="110" y="2330" as="targetPoint" />
            <Array as="points">
              <mxPoint x="111" y="2301" />
              <mxPoint x="111" y="2330" />
            </Array>
          </mxGeometry>
        </mxCell>
        <mxCell id="Z4ZE246BEMPOgEt_vpQq-156" value="Link Google account&lt;div&gt;&amp;nbsp;to user profile&lt;/div&gt;" style="edgeLabel;html=1;align=center;verticalAlign=middle;resizable=0;points=[];" connectable="0" vertex="1" parent="Z4ZE246BEMPOgEt_vpQq-155">
          <mxGeometry x="-0.0415" y="-1" relative="1" as="geometry">
            <mxPoint as="offset" />
          </mxGeometry>
        </mxCell>
        <mxCell id="7baba1c4bc27f4b0-4" value=":Redis" style="shape=umlLifeline;perimeter=lifelinePerimeter;whiteSpace=wrap;html=1;container=0;collapsible=0;recursiveResize=0;outlineConnect=0;rounded=1;shadow=0;comic=0;labelBackgroundColor=none;strokeWidth=1;fontFamily=Verdana;fontSize=12;align=center;" vertex="1" parent="1">
          <mxGeometry x="540" y="80" width="110" height="2470" as="geometry" />
        </mxCell>
        <mxCell id="7baba1c4bc27f4b0-5" value=":MailService" style="shape=umlLifeline;perimeter=lifelinePerimeter;whiteSpace=wrap;html=1;container=1;collapsible=0;recursiveResize=0;outlineConnect=0;rounded=1;shadow=0;comic=0;labelBackgroundColor=none;strokeWidth=1;fontFamily=Verdana;fontSize=12;align=center;" vertex="1" parent="1">
          <mxGeometry x="680" y="80" width="110" height="2460" as="geometry" />
        </mxCell>
        <mxCell id="Z4ZE246BEMPOgEt_vpQq-15" value="User creates Beep account (via Polytech account)" style="shape=partialRectangle;whiteSpace=wrap;html=1;left=0;right=0;fillColor=none;fontStyle=1" vertex="1" parent="7baba1c4bc27f4b0-5">
          <mxGeometry x="-180" y="240" width="290" height="30" as="geometry" />
        </mxCell>
        <mxCell id="Z4ZE246BEMPOgEt_vpQq-66" value="" style="edgeStyle=none;orthogonalLoop=1;jettySize=auto;html=1;rounded=0;" edge="1" parent="7baba1c4bc27f4b0-5">
          <mxGeometry width="80" relative="1" as="geometry">
            <mxPoint x="-225" y="820" as="sourcePoint" />
            <mxPoint x="189.5" y="820" as="targetPoint" />
            <Array as="points" />
          </mxGeometry>
        </mxCell>
        <mxCell id="Z4ZE246BEMPOgEt_vpQq-67" value="Validate OIDC token" style="edgeLabel;html=1;align=center;verticalAlign=middle;resizable=0;points=[];" connectable="0" vertex="1" parent="Z4ZE246BEMPOgEt_vpQq-66">
          <mxGeometry x="-0.587" relative="1" as="geometry">
            <mxPoint x="-1" as="offset" />
          </mxGeometry>
        </mxCell>
        <mxCell id="Z4ZE246BEMPOgEt_vpQq-133" value="User associates their Google account with their Beep account" style="shape=partialRectangle;whiteSpace=wrap;html=1;left=0;right=0;fillColor=none;fontStyle=1" vertex="1" parent="7baba1c4bc27f4b0-5">
          <mxGeometry x="-180" y="2000" width="290" height="30" as="geometry" />
        </mxCell>
        <mxCell id="7baba1c4bc27f4b0-6" value=":KeyCloak" style="shape=umlLifeline;perimeter=lifelinePerimeter;whiteSpace=wrap;html=1;container=1;collapsible=0;recursiveResize=0;outlineConnect=0;rounded=1;shadow=0;comic=0;labelBackgroundColor=none;strokeWidth=1;fontFamily=Verdana;fontSize=12;align=center;" vertex="1" parent="1">
          <mxGeometry x="820" y="80" width="100" height="2460" as="geometry" />
        </mxCell>
        <mxCell id="Z4ZE246BEMPOgEt_vpQq-18" value="" style="html=1;points=[];perimeter=orthogonalPerimeter;rounded=0;shadow=0;comic=0;labelBackgroundColor=none;strokeWidth=1;fontFamily=Verdana;fontSize=12;align=center;" vertex="1" parent="7baba1c4bc27f4b0-6">
          <mxGeometry x="45" y="295" width="10" height="65" as="geometry" />
        </mxCell>
        <mxCell id="Z4ZE246BEMPOgEt_vpQq-31" value="" style="html=1;points=[];perimeter=orthogonalPerimeter;rounded=0;shadow=0;comic=0;labelBackgroundColor=none;strokeWidth=1;fontFamily=Verdana;fontSize=12;align=center;" vertex="1" parent="7baba1c4bc27f4b0-6">
          <mxGeometry x="45" y="390" width="10" height="65" as="geometry" />
        </mxCell>
        <mxCell id="Z4ZE246BEMPOgEt_vpQq-68" value="" style="html=1;points=[];perimeter=orthogonalPerimeter;rounded=0;shadow=0;comic=0;labelBackgroundColor=none;strokeWidth=1;fontFamily=Verdana;fontSize=12;align=center;" vertex="1" parent="7baba1c4bc27f4b0-6">
          <mxGeometry x="45" y="810" width="10" height="65" as="geometry" />
        </mxCell>
        <mxCell id="Z4ZE246BEMPOgEt_vpQq-69" value="" style="edgeStyle=none;orthogonalLoop=1;jettySize=auto;html=1;rounded=0;" edge="1" parent="7baba1c4bc27f4b0-6">
          <mxGeometry width="80" relative="1" as="geometry">
            <mxPoint x="55" y="720" as="sourcePoint" />
            <mxPoint x="190" y="720" as="targetPoint" />
            <Array as="points" />
          </mxGeometry>
        </mxCell>
        <mxCell id="Z4ZE246BEMPOgEt_vpQq-73" value="" style="html=1;points=[];perimeter=orthogonalPerimeter;rounded=0;shadow=0;comic=0;labelBackgroundColor=none;strokeWidth=1;fontFamily=Verdana;fontSize=12;align=center;" vertex="1" parent="7baba1c4bc27f4b0-6">
          <mxGeometry x="45" y="700" width="10" height="65" as="geometry" />
        </mxCell>
        <mxCell id="Z4ZE246BEMPOgEt_vpQq-103" value="" style="html=1;points=[];perimeter=orthogonalPerimeter;rounded=0;shadow=0;comic=0;labelBackgroundColor=none;strokeWidth=1;fontFamily=Verdana;fontSize=12;align=center;" vertex="1" parent="7baba1c4bc27f4b0-6">
          <mxGeometry x="45" y="1530" width="10" height="160" as="geometry" />
        </mxCell>
        <mxCell id="Z4ZE246BEMPOgEt_vpQq-108" value="" style="edgeStyle=none;orthogonalLoop=1;jettySize=auto;html=1;rounded=0;" edge="1" parent="7baba1c4bc27f4b0-6" target="7baba1c4bc27f4b0-7">
          <mxGeometry width="80" relative="1" as="geometry">
            <mxPoint x="55" y="1580" as="sourcePoint" />
            <mxPoint x="135" y="1580" as="targetPoint" />
            <Array as="points" />
          </mxGeometry>
        </mxCell>
        <mxCell id="Z4ZE246BEMPOgEt_vpQq-109" value="Authenticate User" style="edgeLabel;html=1;align=center;verticalAlign=middle;resizable=0;points=[];" connectable="0" vertex="1" parent="Z4ZE246BEMPOgEt_vpQq-108">
          <mxGeometry x="-0.3705" y="-2" relative="1" as="geometry">
            <mxPoint x="23" as="offset" />
          </mxGeometry>
        </mxCell>
        <mxCell id="Z4ZE246BEMPOgEt_vpQq-117" value="" style="html=1;points=[];perimeter=orthogonalPerimeter;rounded=0;shadow=0;comic=0;labelBackgroundColor=none;strokeWidth=1;fontFamily=Verdana;fontSize=12;align=center;" vertex="1" parent="7baba1c4bc27f4b0-6">
          <mxGeometry x="45" y="1700" width="10" height="50" as="geometry" />
        </mxCell>
        <mxCell id="Z4ZE246BEMPOgEt_vpQq-120" value="" style="edgeStyle=none;orthogonalLoop=1;jettySize=auto;html=1;rounded=0;" edge="1" parent="7baba1c4bc27f4b0-6" target="7baba1c4bc27f4b0-3">
          <mxGeometry width="80" relative="1" as="geometry">
            <mxPoint x="45" y="1740" as="sourcePoint" />
            <mxPoint x="-60.611111111111086" y="1740" as="targetPoint" />
            <Array as="points" />
          </mxGeometry>
        </mxCell>
        <mxCell id="Z4ZE246BEMPOgEt_vpQq-121" value="Return validation result" style="edgeLabel;html=1;align=center;verticalAlign=middle;resizable=0;points=[];" connectable="0" vertex="1" parent="Z4ZE246BEMPOgEt_vpQq-120">
          <mxGeometry x="0.1298" y="1" relative="1" as="geometry">
            <mxPoint as="offset" />
          </mxGeometry>
        </mxCell>
        <mxCell id="Z4ZE246BEMPOgEt_vpQq-136" value="" style="html=1;points=[];perimeter=orthogonalPerimeter;rounded=0;shadow=0;comic=0;labelBackgroundColor=none;strokeWidth=1;fontFamily=Verdana;fontSize=12;align=center;" vertex="1" parent="7baba1c4bc27f4b0-6">
          <mxGeometry x="45" y="2070" width="10" height="100" as="geometry" />
        </mxCell>
        <mxCell id="Z4ZE246BEMPOgEt_vpQq-140" value="" style="edgeStyle=none;orthogonalLoop=1;jettySize=auto;html=1;rounded=0;" edge="1" parent="7baba1c4bc27f4b0-6" target="Z4ZE246BEMPOgEt_vpQq-1">
          <mxGeometry width="80" relative="1" as="geometry">
            <mxPoint x="55" y="2110" as="sourcePoint" />
            <mxPoint x="135" y="2110" as="targetPoint" />
            <Array as="points" />
          </mxGeometry>
        </mxCell>
        <mxCell id="Z4ZE246BEMPOgEt_vpQq-141" value="Authenticate user" style="edgeLabel;html=1;align=center;verticalAlign=middle;resizable=0;points=[];" connectable="0" vertex="1" parent="Z4ZE246BEMPOgEt_vpQq-140">
          <mxGeometry x="-0.1257" y="-3" relative="1" as="geometry">
            <mxPoint as="offset" />
          </mxGeometry>
        </mxCell>
        <mxCell id="Z4ZE246BEMPOgEt_vpQq-144" value="" style="html=1;points=[];perimeter=orthogonalPerimeter;rounded=0;shadow=0;comic=0;labelBackgroundColor=none;strokeWidth=1;fontFamily=Verdana;fontSize=12;align=center;" vertex="1" parent="7baba1c4bc27f4b0-6">
          <mxGeometry x="45" y="2220" width="10" height="50" as="geometry" />
        </mxCell>
        <mxCell id="Z4ZE246BEMPOgEt_vpQq-146" value="" style="edgeStyle=none;orthogonalLoop=1;jettySize=auto;html=1;rounded=0;" edge="1" parent="7baba1c4bc27f4b0-6" target="7baba1c4bc27f4b0-2">
          <mxGeometry width="80" relative="1" as="geometry">
            <mxPoint x="45.00000000000003" y="2160" as="sourcePoint" />
            <mxPoint x="-165.33333333333343" y="2160" as="targetPoint" />
            <Array as="points" />
          </mxGeometry>
        </mxCell>
        <mxCell id="Z4ZE246BEMPOgEt_vpQq-147" value="Return OIDC token" style="edgeLabel;html=1;align=center;verticalAlign=middle;resizable=0;points=[];" connectable="0" vertex="1" parent="Z4ZE246BEMPOgEt_vpQq-146">
          <mxGeometry x="0.3053" y="2" relative="1" as="geometry">
            <mxPoint x="-119" as="offset" />
          </mxGeometry>
        </mxCell>
        <mxCell id="Z4ZE246BEMPOgEt_vpQq-152" value="" style="edgeStyle=none;orthogonalLoop=1;jettySize=auto;html=1;rounded=0;" edge="1" parent="7baba1c4bc27f4b0-6" target="7baba1c4bc27f4b0-3">
          <mxGeometry width="80" relative="1" as="geometry">
            <mxPoint x="40.32999999999993" y="2270" as="sourcePoint" />
            <mxPoint x="-30.003333333333558" y="2270" as="targetPoint" />
            <Array as="points" />
          </mxGeometry>
        </mxCell>
        <mxCell id="Z4ZE246BEMPOgEt_vpQq-154" value="Return validation result" style="edgeLabel;html=1;align=center;verticalAlign=middle;resizable=0;points=[];" connectable="0" vertex="1" parent="Z4ZE246BEMPOgEt_vpQq-152">
          <mxGeometry x="0.1193" y="3" relative="1" as="geometry">
            <mxPoint as="offset" />
          </mxGeometry>
        </mxCell>
        <mxCell id="7baba1c4bc27f4b0-7" value=":PolytechLDAP" style="shape=umlLifeline;perimeter=lifelinePerimeter;whiteSpace=wrap;html=1;container=1;collapsible=0;recursiveResize=0;outlineConnect=0;rounded=1;shadow=0;comic=0;labelBackgroundColor=none;strokeWidth=1;fontFamily=Verdana;fontSize=12;align=center;" vertex="1" parent="1">
          <mxGeometry x="960" y="80" width="100" height="2490" as="geometry" />
        </mxCell>
        <mxCell id="Z4ZE246BEMPOgEt_vpQq-21" value="" style="html=1;points=[];perimeter=orthogonalPerimeter;rounded=0;shadow=0;comic=0;labelBackgroundColor=none;strokeWidth=1;fontFamily=Verdana;fontSize=12;align=center;" vertex="1" parent="7baba1c4bc27f4b0-7">
          <mxGeometry x="45" y="295" width="10" height="50" as="geometry" />
        </mxCell>
        <mxCell id="Z4ZE246BEMPOgEt_vpQq-53" value="Authenticate user" style="edgeLabel;html=1;align=center;verticalAlign=middle;resizable=0;points=[];" connectable="0" vertex="1" parent="7baba1c4bc27f4b0-7">
          <mxGeometry x="-15.379999999999995" y="710" as="geometry" />
        </mxCell>
        <mxCell id="Z4ZE246BEMPOgEt_vpQq-106" value="" style="html=1;points=[];perimeter=orthogonalPerimeter;rounded=0;shadow=0;comic=0;labelBackgroundColor=none;strokeWidth=1;fontFamily=Verdana;fontSize=12;align=center;" vertex="1" parent="7baba1c4bc27f4b0-7">
          <mxGeometry x="45" y="1560" width="10" height="90" as="geometry" />
        </mxCell>
        <mxCell id="7baba1c4bc27f4b0-8" value=":User" style="shape=umlLifeline;perimeter=lifelinePerimeter;whiteSpace=wrap;html=1;container=1;collapsible=0;recursiveResize=0;outlineConnect=0;rounded=1;shadow=0;comic=0;labelBackgroundColor=none;strokeWidth=1;fontFamily=Verdana;fontSize=12;align=center;" vertex="1" parent="1">
          <mxGeometry x="100" y="80" width="100" height="2450" as="geometry" />
        </mxCell>
        <mxCell id="Z4ZE246BEMPOgEt_vpQq-76" value="Enter email and password" style="html=1;verticalAlign=bottom;endArrow=block;labelBackgroundColor=none;fontFamily=Verdana;fontSize=12;edgeStyle=elbowEdgeStyle;elbow=vertical;" edge="1" parent="7baba1c4bc27f4b0-8" target="7baba1c4bc27f4b0-2">
          <mxGeometry relative="1" as="geometry">
            <mxPoint x="55" y="1090" as="sourcePoint" />
            <mxPoint x="185" y="1090" as="targetPoint" />
            <Array as="points">
              <mxPoint x="50" y="1090" />
            </Array>
          </mxGeometry>
        </mxCell>
        <mxCell id="Z4ZE246BEMPOgEt_vpQq-131" value="" style="edgeStyle=none;orthogonalLoop=1;jettySize=auto;html=1;rounded=0;" edge="1" parent="7baba1c4bc27f4b0-8">
          <mxGeometry width="80" relative="1" as="geometry">
            <mxPoint x="185" y="1910" as="sourcePoint" />
            <mxPoint x="50" y="1910" as="targetPoint" />
            <Array as="points" />
          </mxGeometry>
        </mxCell>
        <mxCell id="Z4ZE246BEMPOgEt_vpQq-132" value="Set cookies" style="edgeLabel;html=1;align=center;verticalAlign=middle;resizable=0;points=[];" connectable="0" vertex="1" parent="Z4ZE246BEMPOgEt_vpQq-131">
          <mxGeometry x="0.5939" relative="1" as="geometry">
            <mxPoint x="49" as="offset" />
          </mxGeometry>
        </mxCell>
        <mxCell id="Z4ZE246BEMPOgEt_vpQq-12" style="rounded=0;orthogonalLoop=1;jettySize=auto;html=1;" edge="1" parent="1">
          <mxGeometry relative="1" as="geometry">
            <mxPoint x="725" y="281" as="sourcePoint" />
            <mxPoint x="149.5" y="281" as="targetPoint" />
          </mxGeometry>
        </mxCell>
        <mxCell id="Z4ZE246BEMPOgEt_vpQq-13" value="Email with verification link" style="edgeLabel;html=1;align=center;verticalAlign=middle;resizable=0;points=[];" connectable="0" vertex="1" parent="Z4ZE246BEMPOgEt_vpQq-12">
          <mxGeometry x="-0.494" relative="1" as="geometry">
            <mxPoint as="offset" />
          </mxGeometry>
        </mxCell>
        <mxCell id="7baba1c4bc27f4b0-19" value="" style="html=1;points=[];perimeter=orthogonalPerimeter;rounded=0;shadow=0;comic=0;labelBackgroundColor=none;strokeWidth=1;fontFamily=Verdana;fontSize=12;align=center;" vertex="1" parent="1">
          <mxGeometry x="725" y="230" width="10" height="50" as="geometry" />
        </mxCell>
        <mxCell id="7baba1c4bc27f4b0-11" value="Enter email and password" style="html=1;verticalAlign=bottom;endArrow=block;entryX=0;entryY=0;labelBackgroundColor=none;fontFamily=Verdana;fontSize=12;edgeStyle=elbowEdgeStyle;elbow=vertical;" edge="1" parent="1" target="7baba1c4bc27f4b0-10">
          <mxGeometry relative="1" as="geometry">
            <mxPoint x="155" y="181" as="sourcePoint" />
          </mxGeometry>
        </mxCell>
        <mxCell id="7baba1c4bc27f4b0-14" value="POST /signup (eamail, password)" style="html=1;verticalAlign=bottom;endArrow=block;entryX=0;entryY=0;labelBackgroundColor=none;fontFamily=Verdana;fontSize=12;edgeStyle=elbowEdgeStyle;elbow=vertical;" edge="1" parent="1" source="7baba1c4bc27f4b0-10" target="7baba1c4bc27f4b0-13">
          <mxGeometry relative="1" as="geometry">
            <mxPoint x="370" y="200" as="sourcePoint" />
          </mxGeometry>
        </mxCell>
        <mxCell id="Z4ZE246BEMPOgEt_vpQq-1" value=":GoogleOAuth" style="shape=umlLifeline;perimeter=lifelinePerimeter;whiteSpace=wrap;html=1;container=1;collapsible=0;recursiveResize=0;outlineConnect=0;rounded=1;shadow=0;comic=0;labelBackgroundColor=none;strokeWidth=1;fontFamily=Verdana;fontSize=12;align=center;" vertex="1" parent="1">
          <mxGeometry x="1100" y="80" width="100" height="2500" as="geometry" />
        </mxCell>
        <mxCell id="Z4ZE246BEMPOgEt_vpQq-139" value="" style="html=1;points=[];perimeter=orthogonalPerimeter;rounded=0;shadow=0;comic=0;labelBackgroundColor=none;strokeWidth=1;fontFamily=Verdana;fontSize=12;align=center;" vertex="1" parent="Z4ZE246BEMPOgEt_vpQq-1">
          <mxGeometry x="45" y="2080" width="10" height="80" as="geometry" />
        </mxCell>
        <mxCell id="Z4ZE246BEMPOgEt_vpQq-8" style="rounded=0;orthogonalLoop=1;jettySize=auto;html=1;entryX=0.02;entryY=0.55;entryDx=0;entryDy=0;entryPerimeter=0;" edge="1" parent="1">
          <mxGeometry relative="1" as="geometry">
            <mxPoint x="725.1" y="260" as="targetPoint" />
            <mxPoint x="454.9" y="260" as="sourcePoint" />
          </mxGeometry>
        </mxCell>
        <mxCell id="Z4ZE246BEMPOgEt_vpQq-9" value="Send confirmation email" style="edgeLabel;html=1;align=center;verticalAlign=middle;resizable=0;points=[];" connectable="0" vertex="1" parent="Z4ZE246BEMPOgEt_vpQq-8">
          <mxGeometry x="0.4619" y="-2" relative="1" as="geometry">
            <mxPoint x="-68" as="offset" />
          </mxGeometry>
        </mxCell>
        <mxCell id="Z4ZE246BEMPOgEt_vpQq-14" value="User creates Beep account (Vanilla)" style="shape=partialRectangle;whiteSpace=wrap;html=1;left=0;right=0;fillColor=none;fontStyle=1" vertex="1" parent="1">
          <mxGeometry x="530" y="130" width="230" height="20" as="geometry" />
        </mxCell>
        <mxCell id="Z4ZE246BEMPOgEt_vpQq-22" value="" style="edgeStyle=none;orthogonalLoop=1;jettySize=auto;html=1;rounded=0;" edge="1" parent="1" target="7baba1c4bc27f4b0-7">
          <mxGeometry width="80" relative="1" as="geometry">
            <mxPoint x="875" y="390" as="sourcePoint" />
            <mxPoint x="955" y="390" as="targetPoint" />
            <Array as="points" />
          </mxGeometry>
        </mxCell>
        <mxCell id="Z4ZE246BEMPOgEt_vpQq-23" value="Authenticate user" style="edgeLabel;html=1;align=center;verticalAlign=middle;resizable=0;points=[];" connectable="0" vertex="1" parent="Z4ZE246BEMPOgEt_vpQq-22">
          <mxGeometry x="0.1777" y="1" relative="1" as="geometry">
            <mxPoint as="offset" />
          </mxGeometry>
        </mxCell>
        <mxCell id="Z4ZE246BEMPOgEt_vpQq-24" value="" style="edgeStyle=none;orthogonalLoop=1;jettySize=auto;html=1;rounded=0;exitX=-0.22;exitY=0.74;exitDx=0;exitDy=0;exitPerimeter=0;" edge="1" parent="1" source="Z4ZE246BEMPOgEt_vpQq-21" target="7baba1c4bc27f4b0-6">
          <mxGeometry width="80" relative="1" as="geometry">
            <mxPoint x="885" y="400" as="sourcePoint" />
            <mxPoint x="1020" y="400" as="targetPoint" />
            <Array as="points" />
          </mxGeometry>
        </mxCell>
        <mxCell id="Z4ZE246BEMPOgEt_vpQq-25" value="Return&amp;nbsp;&lt;div&gt;authentication&lt;div&gt;&amp;nbsp;success&lt;/div&gt;&lt;/div&gt;" style="edgeLabel;html=1;align=center;verticalAlign=middle;resizable=0;points=[];" connectable="0" vertex="1" parent="Z4ZE246BEMPOgEt_vpQq-24">
          <mxGeometry x="0.1777" y="1" relative="1" as="geometry">
            <mxPoint x="15" y="12" as="offset" />
          </mxGeometry>
        </mxCell>
        <mxCell id="Z4ZE246BEMPOgEt_vpQq-27" value="" style="edgeStyle=none;orthogonalLoop=1;jettySize=auto;html=1;rounded=0;exitX=0.02;exitY=0.963;exitDx=0;exitDy=0;exitPerimeter=0;" edge="1" parent="1" source="Z4ZE246BEMPOgEt_vpQq-18" target="7baba1c4bc27f4b0-2">
          <mxGeometry width="80" relative="1" as="geometry">
            <mxPoint x="520" y="430" as="sourcePoint" />
            <mxPoint x="600" y="430" as="targetPoint" />
            <Array as="points" />
          </mxGeometry>
        </mxCell>
        <mxCell id="Z4ZE246BEMPOgEt_vpQq-28" value="Return OIDC token" style="edgeLabel;html=1;align=center;verticalAlign=middle;resizable=0;points=[];" connectable="0" vertex="1" parent="Z4ZE246BEMPOgEt_vpQq-27">
          <mxGeometry x="0.7322" y="3" relative="1" as="geometry">
            <mxPoint as="offset" />
          </mxGeometry>
        </mxCell>
        <mxCell id="Z4ZE246BEMPOgEt_vpQq-35" value="" style="edgeStyle=none;orthogonalLoop=1;jettySize=auto;html=1;rounded=0;entryX=1.14;entryY=0.552;entryDx=0;entryDy=0;entryPerimeter=0;" edge="1" parent="1" source="7baba1c4bc27f4b0-6" target="Z4ZE246BEMPOgEt_vpQq-29">
          <mxGeometry width="80" relative="1" as="geometry">
            <mxPoint x="660" y="540" as="sourcePoint" />
            <mxPoint x="740" y="540" as="targetPoint" />
            <Array as="points" />
          </mxGeometry>
        </mxCell>
        <mxCell id="Z4ZE246BEMPOgEt_vpQq-36" value="Return Validation Result" style="edgeLabel;html=1;align=center;verticalAlign=middle;resizable=0;points=[];" connectable="0" vertex="1" parent="Z4ZE246BEMPOgEt_vpQq-35">
          <mxGeometry x="0.8005" y="1" relative="1" as="geometry">
            <mxPoint x="43" as="offset" />
          </mxGeometry>
        </mxCell>
        <mxCell id="Z4ZE246BEMPOgEt_vpQq-40" style="rounded=0;orthogonalLoop=1;jettySize=auto;html=1;" edge="1" parent="1">
          <mxGeometry relative="1" as="geometry">
            <mxPoint x="725" y="631" as="sourcePoint" />
            <mxPoint x="149.5" y="631" as="targetPoint" />
          </mxGeometry>
        </mxCell>
        <mxCell id="Z4ZE246BEMPOgEt_vpQq-41" value="Email with verification link" style="edgeLabel;html=1;align=center;verticalAlign=middle;resizable=0;points=[];" connectable="0" vertex="1" parent="Z4ZE246BEMPOgEt_vpQq-40">
          <mxGeometry x="-0.494" relative="1" as="geometry">
            <mxPoint x="-349" as="offset" />
          </mxGeometry>
        </mxCell>
        <mxCell id="Z4ZE246BEMPOgEt_vpQq-42" value="" style="html=1;points=[];perimeter=orthogonalPerimeter;rounded=0;shadow=0;comic=0;labelBackgroundColor=none;strokeWidth=1;fontFamily=Verdana;fontSize=12;align=center;" vertex="1" parent="1">
          <mxGeometry x="725" y="580" width="10" height="50" as="geometry" />
        </mxCell>
        <mxCell id="Z4ZE246BEMPOgEt_vpQq-43" style="rounded=0;orthogonalLoop=1;jettySize=auto;html=1;entryX=0.02;entryY=0.55;entryDx=0;entryDy=0;entryPerimeter=0;" edge="1" parent="1">
          <mxGeometry relative="1" as="geometry">
            <mxPoint x="725.1" y="610" as="targetPoint" />
            <mxPoint x="454.9" y="610" as="sourcePoint" />
          </mxGeometry>
        </mxCell>
        <mxCell id="Z4ZE246BEMPOgEt_vpQq-44" value="Send confirmation email" style="edgeLabel;html=1;align=center;verticalAlign=middle;resizable=0;points=[];" connectable="0" vertex="1" parent="Z4ZE246BEMPOgEt_vpQq-43">
          <mxGeometry x="0.4619" y="-2" relative="1" as="geometry">
            <mxPoint x="-68" as="offset" />
          </mxGeometry>
        </mxCell>
        <mxCell id="Z4ZE246BEMPOgEt_vpQq-46" value="User creates Beep account (via Google account)" style="shape=partialRectangle;whiteSpace=wrap;html=1;left=0;right=0;fillColor=none;fontStyle=1" vertex="1" parent="1">
          <mxGeometry x="500" y="680" width="290" height="30" as="geometry" />
        </mxCell>
        <mxCell id="Z4ZE246BEMPOgEt_vpQq-47" value="Click signup with Polytech" style="html=1;verticalAlign=bottom;endArrow=block;entryX=0;entryY=0;labelBackgroundColor=none;fontFamily=Verdana;fontSize=12;edgeStyle=elbowEdgeStyle;elbow=vertical;" edge="1" parent="1" target="Z4ZE246BEMPOgEt_vpQq-48">
          <mxGeometry y="5" relative="1" as="geometry">
            <mxPoint x="150" y="769" as="sourcePoint" />
            <mxPoint as="offset" />
          </mxGeometry>
        </mxCell>
        <mxCell id="Z4ZE246BEMPOgEt_vpQq-48" value="" style="html=1;points=[];perimeter=orthogonalPerimeter;rounded=0;shadow=0;comic=0;labelBackgroundColor=none;strokeWidth=1;fontFamily=Verdana;fontSize=12;align=center;" vertex="1" parent="1">
          <mxGeometry x="290" y="769" width="10" height="115" as="geometry" />
        </mxCell>
        <mxCell id="Z4ZE246BEMPOgEt_vpQq-49" value="" style="edgeStyle=none;orthogonalLoop=1;jettySize=auto;html=1;rounded=0;" edge="1" parent="1">
          <mxGeometry width="80" relative="1" as="geometry">
            <mxPoint x="300" y="781" as="sourcePoint" />
            <mxPoint x="874.5" y="781" as="targetPoint" />
            <Array as="points" />
          </mxGeometry>
        </mxCell>
        <mxCell id="Z4ZE246BEMPOgEt_vpQq-50" value="Redirect to Keycloak (OIDC Login)" style="edgeLabel;html=1;align=center;verticalAlign=middle;resizable=0;points=[];" connectable="0" vertex="1" parent="Z4ZE246BEMPOgEt_vpQq-49">
          <mxGeometry x="-0.6623" y="1" relative="1" as="geometry">
            <mxPoint as="offset" />
          </mxGeometry>
        </mxCell>
        <mxCell id="Z4ZE246BEMPOgEt_vpQq-52" value="Create User in DB" style="edgeLabel;html=1;align=center;verticalAlign=middle;resizable=0;points=[];" connectable="0" vertex="1" parent="1">
          <mxGeometry x="528.425798222662" y="964.4150826425905" as="geometry" />
        </mxCell>
        <mxCell id="Z4ZE246BEMPOgEt_vpQq-55" value="" style="edgeStyle=none;orthogonalLoop=1;jettySize=auto;html=1;rounded=0;exitX=0.02;exitY=0.963;exitDx=0;exitDy=0;exitPerimeter=0;" edge="1" parent="1">
          <mxGeometry width="80" relative="1" as="geometry">
            <mxPoint x="870" y="832" as="sourcePoint" />
            <mxPoint x="294" y="832" as="targetPoint" />
            <Array as="points" />
          </mxGeometry>
        </mxCell>
        <mxCell id="Z4ZE246BEMPOgEt_vpQq-56" value="Return OIDC token" style="edgeLabel;html=1;align=center;verticalAlign=middle;resizable=0;points=[];" connectable="0" vertex="1" parent="Z4ZE246BEMPOgEt_vpQq-55">
          <mxGeometry x="0.7322" y="3" relative="1" as="geometry">
            <mxPoint as="offset" />
          </mxGeometry>
        </mxCell>
        <mxCell id="Z4ZE246BEMPOgEt_vpQq-57" value="" style="edgeStyle=none;orthogonalLoop=1;jettySize=auto;html=1;rounded=0;entryX=1.14;entryY=0.552;entryDx=0;entryDy=0;entryPerimeter=0;" edge="1" parent="1">
          <mxGeometry width="80" relative="1" as="geometry">
            <mxPoint x="874" y="926" as="sourcePoint" />
            <mxPoint x="461" y="926" as="targetPoint" />
            <Array as="points" />
          </mxGeometry>
        </mxCell>
        <mxCell id="Z4ZE246BEMPOgEt_vpQq-58" value="Return Validation Result" style="edgeLabel;html=1;align=center;verticalAlign=middle;resizable=0;points=[];" connectable="0" vertex="1" parent="Z4ZE246BEMPOgEt_vpQq-57">
          <mxGeometry x="0.8005" y="1" relative="1" as="geometry">
            <mxPoint x="43" as="offset" />
          </mxGeometry>
        </mxCell>
        <mxCell id="Z4ZE246BEMPOgEt_vpQq-59" style="rounded=0;orthogonalLoop=1;jettySize=auto;html=1;" edge="1" parent="1">
          <mxGeometry relative="1" as="geometry">
            <mxPoint x="730" y="1025" as="sourcePoint" />
            <mxPoint x="154.5" y="1025" as="targetPoint" />
          </mxGeometry>
        </mxCell>
        <mxCell id="Z4ZE246BEMPOgEt_vpQq-60" value="Email with verification link" style="edgeLabel;html=1;align=center;verticalAlign=middle;resizable=0;points=[];" connectable="0" vertex="1" parent="Z4ZE246BEMPOgEt_vpQq-59">
          <mxGeometry x="-0.494" relative="1" as="geometry">
            <mxPoint x="-349" as="offset" />
          </mxGeometry>
        </mxCell>
        <mxCell id="Z4ZE246BEMPOgEt_vpQq-61" value="" style="html=1;points=[];perimeter=orthogonalPerimeter;rounded=0;shadow=0;comic=0;labelBackgroundColor=none;strokeWidth=1;fontFamily=Verdana;fontSize=12;align=center;" vertex="1" parent="1">
          <mxGeometry x="730" y="974" width="10" height="50" as="geometry" />
        </mxCell>
        <mxCell id="Z4ZE246BEMPOgEt_vpQq-62" style="rounded=0;orthogonalLoop=1;jettySize=auto;html=1;entryX=0.02;entryY=0.55;entryDx=0;entryDy=0;entryPerimeter=0;" edge="1" parent="1">
          <mxGeometry relative="1" as="geometry">
            <mxPoint x="730.1" y="1004" as="targetPoint" />
            <mxPoint x="459.9" y="1004" as="sourcePoint" />
          </mxGeometry>
        </mxCell>
        <mxCell id="Z4ZE246BEMPOgEt_vpQq-63" value="Send confirmation email" style="edgeLabel;html=1;align=center;verticalAlign=middle;resizable=0;points=[];" connectable="0" vertex="1" parent="Z4ZE246BEMPOgEt_vpQq-62">
          <mxGeometry x="0.4619" y="-2" relative="1" as="geometry">
            <mxPoint x="-68" as="offset" />
          </mxGeometry>
        </mxCell>
        <mxCell id="Z4ZE246BEMPOgEt_vpQq-71" value="" style="edgeStyle=none;orthogonalLoop=1;jettySize=auto;html=1;rounded=0;exitX=-0.22;exitY=0.74;exitDx=0;exitDy=0;exitPerimeter=0;" edge="1" parent="1">
          <mxGeometry width="80" relative="1" as="geometry">
            <mxPoint x="1008" y="826.21" as="sourcePoint" />
            <mxPoint x="875" y="826.21" as="targetPoint" />
            <Array as="points" />
          </mxGeometry>
        </mxCell>
        <mxCell id="Z4ZE246BEMPOgEt_vpQq-72" value="Return&amp;nbsp;&lt;div&gt;authentication&lt;div&gt;&amp;nbsp;success&lt;/div&gt;&lt;/div&gt;" style="edgeLabel;html=1;align=center;verticalAlign=middle;resizable=0;points=[];" connectable="0" vertex="1" parent="Z4ZE246BEMPOgEt_vpQq-71">
          <mxGeometry x="0.1777" y="1" relative="1" as="geometry">
            <mxPoint x="15" y="12" as="offset" />
          </mxGeometry>
        </mxCell>
        <mxCell id="Z4ZE246BEMPOgEt_vpQq-74" value="User logs in (Vanilla)" style="shape=partialRectangle;whiteSpace=wrap;html=1;left=0;right=0;fillColor=none;fontStyle=1" vertex="1" parent="1">
          <mxGeometry x="500" y="1090" width="290" height="30" as="geometry" />
        </mxCell>
        <mxCell id="Z4ZE246BEMPOgEt_vpQq-84" value="" style="edgeStyle=orthogonalEdgeStyle;orthogonalLoop=1;jettySize=auto;html=1;rounded=0;exitX=0.744;exitY=0.119;exitDx=0;exitDy=0;exitPerimeter=0;entryX=1.1;entryY=0.353;entryDx=0;entryDy=0;entryPerimeter=0;curved=1;" edge="1" parent="1">
          <mxGeometry width="80" relative="1" as="geometry">
            <mxPoint x="450.43" y="1275" as="sourcePoint" />
            <mxPoint x="454.43" y="1319" as="targetPoint" />
            <Array as="points">
              <mxPoint x="528.43" y="1275" />
              <mxPoint x="528.43" y="1319" />
            </Array>
          </mxGeometry>
        </mxCell>
        <mxCell id="Z4ZE246BEMPOgEt_vpQq-85" value="Generate JWT tokens" style="edgeLabel;html=1;align=center;verticalAlign=middle;resizable=0;points=[];" connectable="0" vertex="1" parent="Z4ZE246BEMPOgEt_vpQq-84">
          <mxGeometry x="-0.0193" y="-5" relative="1" as="geometry">
            <mxPoint as="offset" />
          </mxGeometry>
        </mxCell>
        <mxCell id="Z4ZE246BEMPOgEt_vpQq-86" value="" style="html=1;points=[];perimeter=orthogonalPerimeter;rounded=0;shadow=0;comic=0;labelBackgroundColor=none;strokeWidth=1;fontFamily=Verdana;fontSize=12;align=center;" vertex="1" parent="1">
          <mxGeometry x="590" y="1330" width="10" height="50" as="geometry" />
        </mxCell>
        <mxCell id="Z4ZE246BEMPOgEt_vpQq-89" value="" style="orthogonalLoop=1;jettySize=auto;html=1;rounded=0;entryX=1.1;entryY=0.886;entryDx=0;entryDy=0;entryPerimeter=0;" edge="1" parent="1" target="Z4ZE246BEMPOgEt_vpQq-81">
          <mxGeometry width="80" relative="1" as="geometry">
            <mxPoint x="588" y="1375" as="sourcePoint" />
            <mxPoint x="600" y="1390" as="targetPoint" />
          </mxGeometry>
        </mxCell>
        <mxCell id="Z4ZE246BEMPOgEt_vpQq-91" value="Confirmation&amp;nbsp;&lt;div&gt;stored session&lt;/div&gt;" style="edgeLabel;html=1;align=center;verticalAlign=middle;resizable=0;points=[];" connectable="0" vertex="1" parent="Z4ZE246BEMPOgEt_vpQq-89">
          <mxGeometry x="0.4714" y="3" relative="1" as="geometry">
            <mxPoint x="29" y="2" as="offset" />
          </mxGeometry>
        </mxCell>
        <mxCell id="Z4ZE246BEMPOgEt_vpQq-92" value="" style="edgeStyle=none;orthogonalLoop=1;jettySize=auto;html=1;rounded=0;exitX=0.033;exitY=0.983;exitDx=0;exitDy=0;exitPerimeter=0;" edge="1" parent="1" source="Z4ZE246BEMPOgEt_vpQq-81" target="7baba1c4bc27f4b0-2">
          <mxGeometry width="80" relative="1" as="geometry">
            <mxPoint x="360" y="1410" as="sourcePoint" />
            <mxPoint x="440" y="1410" as="targetPoint" />
            <Array as="points" />
          </mxGeometry>
        </mxCell>
        <mxCell id="Z4ZE246BEMPOgEt_vpQq-93" value="Return acces_token&amp;nbsp;&lt;div&gt;&amp;amp; refresh_token&lt;/div&gt;" style="edgeLabel;html=1;align=center;verticalAlign=middle;resizable=0;points=[];" connectable="0" vertex="1" parent="Z4ZE246BEMPOgEt_vpQq-92">
          <mxGeometry x="0.6644" y="1" relative="1" as="geometry">
            <mxPoint x="55" y="3" as="offset" />
          </mxGeometry>
        </mxCell>
        <mxCell id="Z4ZE246BEMPOgEt_vpQq-96" value="User logs in (Polytech)" style="shape=partialRectangle;whiteSpace=wrap;html=1;left=0;right=0;fillColor=none;fontStyle=1" vertex="1" parent="1">
          <mxGeometry x="501" y="1500" width="290" height="30" as="geometry" />
        </mxCell>
        <mxCell id="Z4ZE246BEMPOgEt_vpQq-110" value="" style="edgeStyle=none;orthogonalLoop=1;jettySize=auto;html=1;rounded=0;exitX=0.122;exitY=0.509;exitDx=0;exitDy=0;exitPerimeter=0;" edge="1" parent="1" source="Z4ZE246BEMPOgEt_vpQq-106" target="7baba1c4bc27f4b0-6">
          <mxGeometry width="80" relative="1" as="geometry">
            <mxPoint x="950" y="1700" as="sourcePoint" />
            <mxPoint x="1030" y="1700" as="targetPoint" />
            <Array as="points" />
          </mxGeometry>
        </mxCell>
        <mxCell id="Z4ZE246BEMPOgEt_vpQq-111" value="Return authentication&amp;nbsp;&lt;div&gt;success&lt;/div&gt;" style="edgeLabel;html=1;align=center;verticalAlign=middle;resizable=0;points=[];" connectable="0" vertex="1" parent="Z4ZE246BEMPOgEt_vpQq-110">
          <mxGeometry x="-0.1555" y="4" relative="1" as="geometry">
            <mxPoint as="offset" />
          </mxGeometry>
        </mxCell>
        <mxCell id="Z4ZE246BEMPOgEt_vpQq-112" value="" style="edgeStyle=none;orthogonalLoop=1;jettySize=auto;html=1;rounded=0;" edge="1" parent="1" target="7baba1c4bc27f4b0-2">
          <mxGeometry width="80" relative="1" as="geometry">
            <mxPoint x="870.61" y="1730" as="sourcePoint" />
            <mxPoint x="399.9988888888889" y="1730" as="targetPoint" />
            <Array as="points" />
          </mxGeometry>
        </mxCell>
        <mxCell id="Z4ZE246BEMPOgEt_vpQq-113" value="Return OIDC token" style="edgeLabel;html=1;align=center;verticalAlign=middle;resizable=0;points=[];" connectable="0" vertex="1" parent="Z4ZE246BEMPOgEt_vpQq-112">
          <mxGeometry x="0.1942" y="-3" relative="1" as="geometry">
            <mxPoint as="offset" />
          </mxGeometry>
        </mxCell>
        <mxCell id="Z4ZE246BEMPOgEt_vpQq-124" value="" style="html=1;points=[];perimeter=orthogonalPerimeter;rounded=0;shadow=0;comic=0;labelBackgroundColor=none;strokeWidth=1;fontFamily=Verdana;fontSize=12;align=center;" vertex="1" parent="1">
          <mxGeometry x="590" y="1900" width="10" height="60" as="geometry" />
        </mxCell>
        <mxCell id="Z4ZE246BEMPOgEt_vpQq-127" value="" style="orthogonalLoop=1;jettySize=auto;html=1;rounded=0;entryX=1.1;entryY=0.886;entryDx=0;entryDy=0;entryPerimeter=0;" edge="1" parent="1">
          <mxGeometry width="80" relative="1" as="geometry">
            <mxPoint x="590" y="1940" as="sourcePoint" />
            <mxPoint x="458" y="1940" as="targetPoint" />
          </mxGeometry>
        </mxCell>
        <mxCell id="Z4ZE246BEMPOgEt_vpQq-128" value="Confirmation&amp;nbsp;&lt;div&gt;stored session&lt;/div&gt;" style="edgeLabel;html=1;align=center;verticalAlign=middle;resizable=0;points=[];" connectable="0" vertex="1" parent="Z4ZE246BEMPOgEt_vpQq-127">
          <mxGeometry x="0.4714" y="3" relative="1" as="geometry">
            <mxPoint x="29" y="2" as="offset" />
          </mxGeometry>
        </mxCell>
        <mxCell id="Z4ZE246BEMPOgEt_vpQq-142" value="" style="edgeStyle=none;orthogonalLoop=1;jettySize=auto;html=1;rounded=0;" edge="1" parent="1" target="7baba1c4bc27f4b0-6">
          <mxGeometry width="80" relative="1" as="geometry">
            <mxPoint x="1151.17" y="2220" as="sourcePoint" />
            <mxPoint x="940.0033333333334" y="2220" as="targetPoint" />
            <Array as="points" />
          </mxGeometry>
        </mxCell>
        <mxCell id="Z4ZE246BEMPOgEt_vpQq-143" value="Return authentication success" style="edgeLabel;html=1;align=center;verticalAlign=middle;resizable=0;points=[];" connectable="0" vertex="1" parent="Z4ZE246BEMPOgEt_vpQq-142">
          <mxGeometry x="0.2716" y="1" relative="1" as="geometry">
            <mxPoint as="offset" />
          </mxGeometry>
        </mxCell>
        <mxCell id="Z4ZE246BEMPOgEt_vpQq-157" value="" style="edgeStyle=none;orthogonalLoop=1;jettySize=auto;html=1;rounded=0;" edge="1" parent="1" target="7baba1c4bc27f4b0-8">
          <mxGeometry width="80" relative="1" as="geometry">
            <mxPoint x="450.01" y="2430" as="sourcePoint" />
            <mxPoint x="219.99717948717932" y="2430" as="targetPoint" />
            <Array as="points" />
          </mxGeometry>
        </mxCell>
        <mxCell id="Z4ZE246BEMPOgEt_vpQq-158" value="Confirmation of account linking" style="edgeLabel;html=1;align=center;verticalAlign=middle;resizable=0;points=[];" connectable="0" vertex="1" parent="Z4ZE246BEMPOgEt_vpQq-157">
          <mxGeometry x="0.134" y="-2" relative="1" as="geometry">
            <mxPoint as="offset" />
          </mxGeometry>
        </mxCell>
      </root>
    </mxGraphModel>
  </diagram>
</mxfile>
